<?xml version="1.0" encoding="UTF-8" standalone="no"?>
<svg
   fill="#F4F4F4"
   height="40"
   width="163.32898"
   version="1.1"
   id="svg180"
   sodipodi:docname="tripselector-logo.svg"
   xml:space="preserve"
   inkscape:version="1.2.2 (b0a8486, 2022-12-01)"
   xmlns:inkscape="http://www.inkscape.org/namespaces/inkscape"
   xmlns:sodipodi="http://sodipodi.sourceforge.net/DTD/sodipodi-0.dtd"
   xmlns="http://www.w3.org/2000/svg"
   xmlns:svg="http://www.w3.org/2000/svg"><defs
     id="defs184" /><sodipodi:namedview
     id="namedview182"
     pagecolor="#ffffff"
     bordercolor="#000000"
     borderopacity="0.25"
     inkscape:showpageshadow="2"
     inkscape:pageopacity="0.0"
     inkscape:pagecheckerboard="0"
     inkscape:deskcolor="#d1d1d1"
     showgrid="false"
     inkscape:zoom="4.7654467"
     inkscape:cx="81.314518"
     inkscape:cy="20.249938"
     inkscape:window-width="1234"
     inkscape:window-height="747"
     inkscape:window-x="46"
     inkscape:window-y="25"
     inkscape:window-maximized="0"
     inkscape:current-layer="svg180"><inkscape:grid
       type="xygrid"
       id="grid4027"
       originx="57.230205"
       originy="-9.869473" /></sodipodi:namedview><path
     d="M 3,38 Q 1.75,38 0.87499997,37.125 0,36.25 0,35 V 11.5 Q 0,10.05 1.025,9.0249998 2.05,8 3.5,8 H 8 V 1.5 Q 8,0.8 8.625,0.4 9.25,0 9.9999998,0 H 18 Q 18.75,0 19.375,0.4 20,0.8 20,1.5 V 8 h 5 Q 26.25,8 27.125,8.8749998 28,9.7499998 28,11 v 24 q 0,1.25 -0.875,2.125 Q 26.25,38 25,38 25,38.85 24.425,39.425 23.85,40 23,40 22.15,40 21.575,39.425 21,38.85 21,38 H 7 Q 7,38.85 6.425,39.425 5.85,40 5,40 4.15,40 3.575,39.425 3,38.85 3,38 Z M 9.9999998,8 H 18 V 2 H 9.9999998 Z M 3,35 H 25 V 11 H 3 Z m 3.5,-3 h 2 V 14 h -2 z m 6.5,0 h 2 V 14 h -2 z m 6.5,0 h 2 V 14 h -2 z M 3,35 V 11 Z"
     id="path152" /><g
     transform="matrix(0.03315553,0,0,-0.03542958,37.006417,37.94111)"
     fill="#000000"
     stroke="none"
     id="g3534"
     style="fill:#F4F4F4;fill-opacity:1"><path
       d="m 732,708 c -15,-15 -15,-51 0,-66 7,-7 24,-12 38,-12 31,0 50,17 50,45 0,12 -5,26 -12,33 -15,15 -61,15 -76,0 z"
       id="path3508"
       style="fill:#F4F4F4;fill-opacity:1" /><path
       d="M 2080,475 V 250 h 40 40 v 225 225 h -40 -40 z"
       id="path3510"
       style="fill:#F4F4F4;fill-opacity:1" /><path
       d="m 80,645 v -34 l 68,-3 67,-3 3,-177 2,-178 h 40 40 v 180 180 h 70 70 v 35 35 H 260 80 Z"
       id="path3512"
       style="fill:#F4F4F4;fill-opacity:1" /><path
       d="m 1373,665 c -66,-28 -93,-117 -52,-169 26,-33 56,-48 141,-70 76,-20 93,-35 84,-70 -12,-48 -114,-53 -197,-11 -28,15 -29,14 -45,-16 -15,-30 -15,-33 2,-43 63,-37 186,-48 248,-22 65,27 97,108 66,167 -12,22 -70,53 -120,64 -56,12 -108,35 -114,52 -23,58 99,89 181,45 19,-10 24,-9 33,7 18,34 11,52 -25,67 -44,18 -160,18 -202,-1 z"
       id="path3514"
       style="fill:#F4F4F4;fill-opacity:1" /><path
       d="m 3000,615 c 0,-31 -3,-35 -25,-35 -18,0 -26,-7 -31,-24 -8,-32 2,-46 32,-46 24,0 24,-1 24,-101 0,-98 1,-101 29,-130 25,-24 38,-29 78,-29 62,0 78,10 69,45 -6,23 -11,26 -34,22 -53,-10 -62,4 -62,103 v 90 h 40 c 39,0 40,1 40,35 0,34 -1,35 -40,35 -39,0 -40,1 -40,35 0,34 -1,35 -40,35 -39,0 -40,-1 -40,-35 z"
       id="path3516"
       style="fill:#F4F4F4;fill-opacity:1" /><path
       d="M 480,415 V 250 h 40 40 v 99 c 0,114 15,145 75,157 32,6 35,9 35,40 0,30 -3,34 -27,34 -16,-1 -39,-7 -53,-15 -32,-18 -40,-18 -40,0 0,10 -11,15 -35,15 h -35 z"
       id="path3518"
       style="fill:#F4F4F4;fill-opacity:1" /><path
       d="M 730,415 V 250 h 40 40 v 165 165 h -40 -40 z"
       id="path3520"
       style="fill:#F4F4F4;fill-opacity:1" /><path
       d="M 910,355 V 130 h 35 35 v 68 c 0,38 3,71 6,74 3,3 19,-1 35,-9 42,-21 127,-13 166,15 91,65 81,232 -17,282 -46,24 -114,26 -154,5 -35,-18 -36,-18 -36,0 0,10 -11,15 -35,15 h -35 z m 234,124 c 55,-65 18,-158 -64,-159 -46,0 -77,23 -88,63 -19,69 21,127 88,127 30,0 44,-6 64,-31 z"
       id="path3522"
       style="fill:#F4F4F4;fill-opacity:1" /><path
       d="m 1754,555 c -55,-33 -77,-80 -72,-154 2,-35 11,-67 23,-84 55,-75 197,-91 268,-29 16,15 16,16 -4,38 -20,21 -24,22 -43,9 -11,-8 -42,-15 -69,-15 -38,0 -53,5 -72,25 -14,13 -25,29 -25,35 0,6 45,10 125,10 h 125 v 32 c 0,125 -145,200 -256,133 z m 145,-61 c 53,-44 42,-54 -54,-54 -67,0 -85,3 -85,14 0,21 58,66 85,66 13,0 37,-12 54,-26 z"
       id="path3524"
       style="fill:#F4F4F4;fill-opacity:1" /><path
       d="m 2304,555 c -55,-33 -77,-80 -72,-154 2,-35 11,-67 23,-84 55,-75 197,-91 268,-29 16,15 16,16 -4,38 -20,21 -24,22 -43,9 -11,-8 -42,-15 -69,-15 -38,0 -53,5 -72,25 -14,13 -25,29 -25,35 0,6 45,10 125,10 h 125 v 32 c 0,125 -145,200 -256,133 z m 145,-61 c 53,-44 42,-54 -54,-54 -67,0 -85,3 -85,14 0,21 58,66 85,66 13,0 37,-12 54,-26 z"
       id="path3526"
       style="fill:#F4F4F4;fill-opacity:1" /><path
       d="m 2693,559 c -57,-28 -86,-76 -86,-144 0,-100 69,-165 173,-165 54,0 81,10 118,43 29,27 28,33 -8,52 -28,15 -32,14 -52,-5 -26,-24 -84,-27 -116,-5 -44,32 -45,121 -1,158 29,24 90,22 117,-3 20,-19 24,-20 52,-5 36,19 37,25 8,53 -50,46 -136,55 -205,21 z"
       id="path3528"
       style="fill:#F4F4F4;fill-opacity:1" /><path
       d="m 3294,560 c -59,-29 -88,-85 -82,-159 5,-65 25,-100 79,-130 81,-46 207,-13 243,63 22,46 21,123 -3,166 -38,72 -153,101 -237,60 z m 151,-75 c 19,-18 25,-35 25,-70 0,-62 -32,-95 -90,-95 -56,0 -90,36 -90,95 0,59 34,95 90,95 30,0 47,-6 65,-25 z"
       id="path3530"
       style="fill:#F4F4F4;fill-opacity:1" /><path
       d="M 3620,415 V 250 h 40 40 v 85 c 0,113 15,150 69,166 38,11 41,15 41,47 0,34 0,35 -36,29 -20,-3 -45,-14 -55,-23 -18,-16 -19,-16 -19,4 0,19 -6,22 -40,22 h -40 z"
       id="path3532"
       style="fill:#F4F4F4;fill-opacity:1" /></g></svg>
