<?xml version="1.0" standalone="no"?>
<!DOCTYPE svg PUBLIC "-//W3C//DTD SVG 20010904//EN"
 "http://www.w3.org/TR/2001/REC-SVG-20010904/DTD/svg10.dtd">
<svg version="1.0" xmlns="http://www.w3.org/2000/svg"
 width="392.000000pt" height="94.000000pt" viewBox="0 0 392.000000 94.000000"
 preserveAspectRatio="xMidYMid meet">

<g transform="translate(0.000000,94.000000) scale(0.100000,-0.100000)"
fill="#000000" stroke="none">
<path d="M732 708 c-15 -15 -15 -51 0 -66 7 -7 24 -12 38 -12 31 0 50 17 50
45 0 12 -5 26 -12 33 -15 15 -61 15 -76 0z"/>
<path d="M2080 475 l0 -225 40 0 40 0 0 225 0 225 -40 0 -40 0 0 -225z"/>
<path d="M80 645 l0 -34 68 -3 67 -3 3 -177 2 -178 40 0 40 0 0 180 0 180 70
0 70 0 0 35 0 35 -180 0 -180 0 0 -35z"/>
<path d="M1373 665 c-66 -28 -93 -117 -52 -169 26 -33 56 -48 141 -70 76 -20
93 -35 84 -70 -12 -48 -114 -53 -197 -11 -28 15 -29 14 -45 -16 -15 -30 -15
-33 2 -43 63 -37 186 -48 248 -22 65 27 97 108 66 167 -12 22 -70 53 -120 64
-56 12 -108 35 -114 52 -23 58 99 89 181 45 19 -10 24 -9 33 7 18 34 11 52
-25 67 -44 18 -160 18 -202 -1z"/>
<path d="M3000 615 c0 -31 -3 -35 -25 -35 -18 0 -26 -7 -31 -24 -8 -32 2 -46
32 -46 24 0 24 -1 24 -101 0 -98 1 -101 29 -130 25 -24 38 -29 78 -29 62 0 78
10 69 45 -6 23 -11 26 -34 22 -53 -10 -62 4 -62 103 l0 90 40 0 c39 0 40 1 40
35 0 34 -1 35 -40 35 -39 0 -40 1 -40 35 0 34 -1 35 -40 35 -39 0 -40 -1 -40
-35z"/>
<path d="M480 415 l0 -165 40 0 40 0 0 99 c0 114 15 145 75 157 32 6 35 9 35
40 0 30 -3 34 -27 34 -16 -1 -39 -7 -53 -15 -32 -18 -40 -18 -40 0 0 10 -11
15 -35 15 l-35 0 0 -165z"/>
<path d="M730 415 l0 -165 40 0 40 0 0 165 0 165 -40 0 -40 0 0 -165z"/>
<path d="M910 355 l0 -225 35 0 35 0 0 68 c0 38 3 71 6 74 3 3 19 -1 35 -9 42
-21 127 -13 166 15 91 65 81 232 -17 282 -46 24 -114 26 -154 5 -35 -18 -36
-18 -36 0 0 10 -11 15 -35 15 l-35 0 0 -225z m234 124 c55 -65 18 -158 -64
-159 -46 0 -77 23 -88 63 -19 69 21 127 88 127 30 0 44 -6 64 -31z"/>
<path d="M1754 555 c-55 -33 -77 -80 -72 -154 2 -35 11 -67 23 -84 55 -75 197
-91 268 -29 16 15 16 16 -4 38 -20 21 -24 22 -43 9 -11 -8 -42 -15 -69 -15
-38 0 -53 5 -72 25 -14 13 -25 29 -25 35 0 6 45 10 125 10 l125 0 0 32 c0 125
-145 200 -256 133z m145 -61 c53 -44 42 -54 -54 -54 -67 0 -85 3 -85 14 0 21
58 66 85 66 13 0 37 -12 54 -26z"/>
<path d="M2304 555 c-55 -33 -77 -80 -72 -154 2 -35 11 -67 23 -84 55 -75 197
-91 268 -29 16 15 16 16 -4 38 -20 21 -24 22 -43 9 -11 -8 -42 -15 -69 -15
-38 0 -53 5 -72 25 -14 13 -25 29 -25 35 0 6 45 10 125 10 l125 0 0 32 c0 125
-145 200 -256 133z m145 -61 c53 -44 42 -54 -54 -54 -67 0 -85 3 -85 14 0 21
58 66 85 66 13 0 37 -12 54 -26z"/>
<path d="M2693 559 c-57 -28 -86 -76 -86 -144 0 -100 69 -165 173 -165 54 0
81 10 118 43 29 27 28 33 -8 52 -28 15 -32 14 -52 -5 -26 -24 -84 -27 -116 -5
-44 32 -45 121 -1 158 29 24 90 22 117 -3 20 -19 24 -20 52 -5 36 19 37 25 8
53 -50 46 -136 55 -205 21z"/>
<path d="M3294 560 c-59 -29 -88 -85 -82 -159 5 -65 25 -100 79 -130 81 -46
207 -13 243 63 22 46 21 123 -3 166 -38 72 -153 101 -237 60z m151 -75 c19
-18 25 -35 25 -70 0 -62 -32 -95 -90 -95 -56 0 -90 36 -90 95 0 59 34 95 90
95 30 0 47 -6 65 -25z"/>
<path d="M3620 415 l0 -165 40 0 40 0 0 85 c0 113 15 150 69 166 38 11 41 15
41 47 0 34 0 35 -36 29 -20 -3 -45 -14 -55 -23 -18 -16 -19 -16 -19 4 0 19 -6
22 -40 22 l-40 0 0 -165z"/>
</g>
</svg>
